<?xml version="1.0" encoding="UTF-8"?>
<svg version="1.1" xmlns="http://www.w3.org/2000/svg" width="224" height="228">
<path d="M0 0 C73.92 0 147.84 0 224 0 C224 75.24 224 150.48 224 228 C150.08 228 76.16 228 0 228 C0 152.76 0 77.52 0 0 Z " fill="#FCFCFC" transform="translate(0,0)"/>
<path d="M0 0 C7.77224596 4.2114453 13.58085006 9.48593856 17.56640625 17.390625 C17.90663818 18.00083496 18.24687012 18.61104492 18.59741211 19.23974609 C21.84034206 26.43808645 20.90720209 38.28903147 18.28125 45.57421875 C15.30501804 52.38237159 11.04969197 58.56124502 4.56640625 62.390625 C2.57291958 63.07652247 0.57334672 63.74515278 -1.43359375 64.390625 C-1.41804947 65.3249939 -1.40250519 66.25936279 -1.38648987 67.2220459 C-1.24428136 76.04902471 -1.13950922 84.87576964 -1.07090855 93.70363617 C-1.03445305 98.24171373 -0.98504639 102.77886294 -0.90551758 107.31640625 C-0.82917881 111.6996211 -0.78754571 116.08194598 -0.76945305 120.46577454 C-0.75656842 122.13395695 -0.73140642 123.80209334 -0.69348335 125.46989441 C-0.37267649 140.16982432 -0.37267649 140.16982432 -4.85131836 145.41601562 C-8.57912072 148.86448473 -10.81957081 149.51490933 -15.87890625 149.48828125 C-17.49345703 149.48344727 -17.49345703 149.48344727 -19.140625 149.47851562 C-20.26855469 149.47013672 -21.39648438 149.46175781 -22.55859375 149.453125 C-24.26208984 149.44635742 -24.26208984 149.44635742 -26 149.43945312 C-28.81122022 149.42764128 -31.62241347 149.40970541 -34.43359375 149.390625 C-34.43359375 153.020625 -34.43359375 156.650625 -34.43359375 160.390625 C-30.80359375 160.390625 -27.17359375 160.390625 -23.43359375 160.390625 C-23.43359375 162.040625 -23.43359375 163.690625 -23.43359375 165.390625 C-50.16359375 165.390625 -76.89359375 165.390625 -104.43359375 165.390625 C-104.43359375 163.740625 -104.43359375 162.090625 -104.43359375 160.390625 C-101.13359375 160.390625 -97.83359375 160.390625 -94.43359375 160.390625 C-94.43359375 156.760625 -94.43359375 153.130625 -94.43359375 149.390625 C-96.02429688 149.43703125 -97.615 149.4834375 -99.25390625 149.53125 C-101.35544993 149.56877757 -103.45701397 149.60517667 -105.55859375 149.640625 C-106.6053125 149.67414063 -107.65203125 149.70765625 -108.73046875 149.7421875 C-114.78214288 149.81879097 -118.80267297 149.74043558 -123.43359375 145.390625 C-127.05025132 140.81888893 -126.82811377 136.72148165 -126.7265625 131.15234375 C-126.72231766 130.27157669 -126.71807281 129.39080963 -126.71369934 128.48335266 C-126.69696019 125.6812939 -126.65931705 122.87996491 -126.62109375 120.078125 C-126.60604074 118.17383854 -126.59235341 116.26954076 -126.58007812 114.36523438 C-126.54707229 109.70675178 -126.49532304 105.04881195 -126.43359375 100.390625 C-132.04359375 100.390625 -137.65359375 100.390625 -143.43359375 100.390625 C-143.43359375 86.200625 -143.43359375 72.010625 -143.43359375 57.390625 C-144.09359375 57.390625 -144.75359375 57.390625 -145.43359375 57.390625 C-145.43359375 56.070625 -145.43359375 54.750625 -145.43359375 53.390625 C-146.09359375 53.390625 -146.75359375 53.390625 -147.43359375 53.390625 C-148.6240428 47.85853825 -148.22730044 44.85324942 -145.80859375 39.765625 C-143.62848932 35.10662011 -141.65539644 30.44336495 -139.81884766 25.63525391 C-139.37135162 24.46556061 -138.92385559 23.29586731 -138.46279907 22.09072876 C-138.12316132 21.19969452 -137.78352356 20.30866028 -137.43359375 19.390625 C-128.97592041 19.36749841 -120.51826019 19.3497083 -112.06056309 19.33881283 C-108.13370717 19.33358469 -104.20687281 19.32648831 -100.2800293 19.31518555 C-96.49345118 19.3043542 -92.70689385 19.29834764 -88.92030144 19.29574776 C-87.47255056 19.29389395 -86.02480087 19.29027419 -84.57705879 19.28489494 C-82.5560224 19.27768133 -80.53496527 19.27721692 -78.51391602 19.27709961 C-76.78516991 19.27376869 -76.78516991 19.27376869 -75.02149963 19.27037048 C-72.43359375 19.390625 -72.43359375 19.390625 -71.43359375 20.390625 C-71.39295543 22.05679615 -71.39087275 23.72450595 -71.43359375 25.390625 C-70.77359375 25.390625 -70.11359375 25.390625 -69.43359375 25.390625 C-69.43359375 27.040625 -69.43359375 28.690625 -69.43359375 30.390625 C-63.16359375 30.390625 -56.89359375 30.390625 -50.43359375 30.390625 C-50.10359375 27.750625 -49.77359375 25.110625 -49.43359375 22.390625 C-47.14360019 13.51689996 -41.75797226 7.37460575 -34.2578125 2.19921875 C-23.25169652 -3.97068772 -11.73538067 -4.96698675 0 0 Z " fill="#090A0A" transform="translate(177.43359375,9.609375)"/>
<path d="M0 0 C4.79724328 -0.59882371 9.22499963 -0.86054952 14 0 C16.50734613 2.25399059 17.84751192 4.46611831 19.50390625 7.390625 C23.31193321 14.03230126 29.88504925 17.65242742 37 20 C38.98 20.33 40.96 20.66 43 21 C43 39.15 43 57.3 43 76 C12.64 76 -17.72 76 -49 76 C-49 68.74 -49 61.48 -49 54 C-36.13 54 -23.26 54 -10 54 C-10 59.28 -10 64.56 -10 70 C5.84 70 21.68 70 38 70 C38 55.81 38 41.62 38 27 C23.81 27 9.62 27 -5 27 C-5 12.375 -5 12.375 -2.5 6.1875 C-2.0359375 5.00542969 -1.571875 3.82335938 -1.09375 2.60546875 C-0.7328125 1.74566406 -0.371875 0.88585938 0 0 Z " fill="#63CAE6" transform="translate(116,56)"/>
<path d="M0 0 C1.65 0 3.3 0 5 0 C5.13900527 9.44878601 5.24562251 18.89722028 5.31087303 28.34680557 C5.34219003 32.73466345 5.38466795 37.121822 5.45263672 41.50927734 C5.51781861 45.74332296 5.55370327 49.97669592 5.56926346 54.21120453 C5.58035216 55.82683658 5.60200674 57.44243168 5.63438034 59.0577774 C5.67793338 61.32090337 5.68393537 63.58124911 5.68115234 65.84472656 C5.69447601 67.13268127 5.70779968 68.42063599 5.7215271 69.74761963 C5 73 5 73 2.26992798 75.44720459 C-1 77 -1 77 -6 77 C-6 73.37 -6 69.74 -6 66 C-18.21 66 -30.42 66 -43 66 C-43 69.63 -43 73.26 -43 77 C-50.73660728 77.09046629 -58.47301686 77.16381095 -66.21002483 77.20724869 C-69.80289593 77.2280997 -73.39538555 77.25637049 -76.98803711 77.30175781 C-80.45696052 77.34530641 -83.92551765 77.36915581 -87.39469337 77.37950897 C-89.35844133 77.3904672 -91.32204247 77.42167925 -93.28556824 77.45318604 C-94.4864357 77.45348816 -95.68730316 77.45379028 -96.92456055 77.45410156 C-98.50674629 77.46742523 -98.50674629 77.46742523 -100.12089539 77.48101807 C-103.72846833 76.87829326 -105.38909823 75.5078353 -108 73 C-109.63945963 69.72108075 -109.12030178 66.09386466 -109.09765625 62.4921875 C-109.0962413 61.65156769 -109.09482635 60.81094788 -109.09336853 59.94485474 C-109.08776237 57.25486725 -109.07520886 54.56496241 -109.0625 51.875 C-109.05748579 50.05338662 -109.05292275 48.23177193 -109.04882812 46.41015625 C-109.03779094 41.94007223 -109.0205222 37.47005014 -109 33 C-107.02 33 -105.04 33 -103 33 C-102.97494385 33.7520874 -102.9498877 34.5041748 -102.92407227 35.27905273 C-102.80849486 38.66539196 -102.68559655 42.05142613 -102.5625 45.4375 C-102.52318359 46.62150391 -102.48386719 47.80550781 -102.44335938 49.02539062 C-102.40146484 50.15009766 -102.35957031 51.27480469 -102.31640625 52.43359375 C-102.27974854 53.47572021 -102.24309082 54.51784668 -102.20532227 55.59155273 C-102.26484659 57.9499826 -102.26484659 57.9499826 -101 59 C-97.96670942 59.10597403 -94.95606304 59.1467752 -91.92211914 59.14526367 C-90.96933578 59.14862228 -90.01655243 59.1519809 -89.03489685 59.15544128 C-85.86830359 59.16498238 -82.70176301 59.16689596 -79.53515625 59.16796875 C-77.34419228 59.17117909 -75.15322852 59.17454298 -72.96226501 59.17805481 C-68.3629405 59.18405396 -63.7636348 59.1858939 -59.16430664 59.18530273 C-53.25791843 59.18520106 -47.35165029 59.19885566 -41.44529057 59.21607494 C-36.91840557 59.22716913 -32.39154984 59.22922274 -27.86465263 59.22869301 C-25.68646264 59.22987694 -23.50827198 59.23432166 -21.33009529 59.24202538 C-18.28906869 59.25177351 -15.24830583 59.24896781 -12.20727539 59.24291992 C-11.29966461 59.24853943 -10.39205383 59.25415894 -9.4569397 59.25994873 C-4.7447087 59.47004188 -4.7447087 59.47004188 -1 57 C-0.6682747 54.49310171 -0.6682747 54.49310171 -0.68115234 51.54052734 C-0.66128265 50.39949554 -0.64141296 49.25846375 -0.62094116 48.08285522 C-0.60938995 46.84637238 -0.59783875 45.60988953 -0.5859375 44.3359375 C-0.56657135 43.07359283 -0.5472052 41.81124817 -0.5272522 40.51065063 C-0.47750955 37.15365788 -0.43627428 33.79677685 -0.39910889 30.43963623 C-0.35911153 27.01434336 -0.30799981 23.58921854 -0.2578125 20.1640625 C-0.1615994 13.44281619 -0.07659418 6.72149695 0 0 Z " fill="#BFC4CC" transform="translate(165,77)"/>
<path d="M0 0 C0.99 0.33 1.98 0.66 3 1 C3.495 3.97 3.495 3.97 4 7 C9.61 7 15.22 7 21 7 C21 17.89 21 28.78 21 40 C9.78 40 -1.44 40 -13 40 C-13 31.09 -13 22.18 -13 13 C-21.58 13 -30.16 13 -39 13 C-39 21.91 -39 30.82 -39 40 C-40.98 40 -42.96 40 -45 40 C-45 29.11 -45 18.22 -45 7 C-40.05 6.67 -35.1 6.34 -30 6 C-29.01 4.35 -28.02 2.7 -27 1 C-25.0625 1.8125 -25.0625 1.8125 -23 3 C-22.67 3.99 -22.34 4.98 -22 6 C-15.4 6.33 -8.8 6.66 -2 7 C-1.67 5.35 -1.34 3.7 -1 2 C-0.67 1.34 -0.34 0.68 0 0 Z " fill="#CCCFD3" transform="translate(85,65)"/>
<path d="M0 0 C12.21 0 24.42 0 37 0 C37 10.56 37 21.12 37 32 C24.79 32 12.58 32 0 32 C0 21.44 0 10.88 0 0 Z " fill="#FA7F6C" transform="translate(111,89)"/>
<path d="M0 0 C16.17 0 32.34 0 49 0 C49 3.63 49 7.26 49 11 C32.83 11 16.66 11 0 11 C0 7.37 0 3.74 0 0 Z " fill="#A6AEB9" transform="translate(89,159)"/>
<path d="M0 0 C1.32 0 2.64 0 4 0 C4.11627503 3.58305992 4.1872736 7.16563417 4.25 10.75 C4.30027344 12.27367187 4.30027344 12.27367187 4.3515625 13.828125 C4.44888523 21.22465278 4.44888523 21.22465278 2.453125 24.671875 C-0.96749327 26.52380209 -3.6251105 26.53051094 -7.5 26.5 C-9.46453125 26.51546875 -9.46453125 26.51546875 -11.46875 26.53125 C-15 26 -15 26 -17.4375 24.40625 C-19.54945774 21.15383508 -19.53267678 18.85586053 -19.5 15 C-19.5103125 13.783125 -19.520625 12.56625 -19.53125 11.3125 C-19 8 -19 8 -17.453125 5.578125 C-14.08855679 3.41365755 -11.10687555 3.56043712 -7.25 3.75 C-6.55261719 3.76804688 -5.85523438 3.78609375 -5.13671875 3.8046875 C-3.42388461 3.85161446 -1.71176176 3.92335395 0 4 C0 2.68 0 1.36 0 0 Z " fill="#161616" transform="translate(28,194)"/>
<path d="M0 0 C0.7115625 -0.01546875 1.423125 -0.0309375 2.15625 -0.046875 C5.48054948 -0.02206679 7.65716015 0.27867301 10.46875 2.09375 C12.53935626 5.34755984 12.53250975 7.66384991 12.5 11.5 C12.5103125 12.716875 12.520625 13.93375 12.53125 15.1875 C12 18.5 12 18.5 10.46875 20.90625 C7.04581996 23.11598965 3.94192504 23.08569402 0 23 C-0.7115625 23.01546875 -1.423125 23.0309375 -2.15625 23.046875 C-5.48054948 23.02206679 -7.65716015 22.72132699 -10.46875 20.90625 C-12.53935626 17.65244016 -12.53250975 15.33615009 -12.5 11.5 C-12.5103125 10.283125 -12.520625 9.06625 -12.53125 7.8125 C-12 4.5 -12 4.5 -10.46875 2.09375 C-7.04581996 -0.11598965 -3.94192504 -0.08569402 0 0 Z " fill="#111111" transform="translate(121,197.5)"/>
<path d="M0 0 C6.93 0 13.86 0 21 0 C21 6.93 21 13.86 21 21 C14.07 21 7.14 21 0 21 C0 14.07 0 7.14 0 0 Z " fill="#060809" transform="translate(78,78)"/>
<path d="M0 0 C5.61 0 11.22 0 17 0 C17.5775 1.485 18.155 2.97 18.75 4.5 C20.35802309 8.55451536 22.15513547 12.39582182 24.265625 16.2109375 C25 18 25 18 25 22 C18.07 22 11.14 22 4 22 C1.77571556 14.55348252 0.50353183 7.75439016 0 0 Z " fill="#F17B68" transform="translate(84,34)"/>
<path d="M0 0 C5.61 0 11.22 0 17 0 C16.27958495 7.44428888 15.37360983 14.8791705 13 22 C6.07 22 -0.86 22 -8 22 C-7.31230746 19.24922984 -6.61344959 16.80426031 -5.625 14.1796875 C-5.23054688 13.12974609 -5.23054688 13.12974609 -4.828125 12.05859375 C-4.41820312 10.97771484 -4.41820312 10.97771484 -4 9.875 C-3.72671875 9.14667969 -3.4534375 8.41835938 -3.171875 7.66796875 C-1.14074248 2.28148496 -1.14074248 2.28148496 0 0 Z " fill="#F17B68" transform="translate(44,34)"/>
<path d="M0 0 C4.29 0 8.58 0 13 0 C13.48362696 2.16567544 13.96167317 4.33259741 14.4375 6.5 C14.70433594 7.7065625 14.97117187 8.913125 15.24609375 10.15625 C16.01423961 14.0725999 16.50498105 18.03984838 17 22 C10.07 22 3.14 22 -4 22 C-2.80059419 14.63222144 -1.5052543 7.31123516 0 0 Z " fill="#F2DF9F" transform="translate(66,34)"/>
<path d="M0 0 C5.28 0 10.56 0 16 0 C16 7.26 16 14.52 16 22 C10.72 22 5.44 22 0 22 C0 14.74 0 7.48 0 0 Z " fill="#CA9A72" transform="translate(51,83)"/>
<path d="M0 0 C1.96453125 -0.01546875 1.96453125 -0.01546875 3.96875 -0.03125 C7.5 0.5 7.5 0.5 9.953125 1.953125 C12.29492903 5.80882255 11.92933751 9.33553832 11.75 13.75 C11.73195312 14.59046875 11.71390625 15.4309375 11.6953125 16.296875 C11.64830798 18.36507395 11.57656724 20.43268441 11.5 22.5 C10.18 22.5 8.86 22.5 7.5 22.5 C7.5 19.53 7.5 16.56 7.5 13.5 C2.55 13.5 -2.4 13.5 -7.5 13.5 C-7.5 16.47 -7.5 19.44 -7.5 22.5 C-8.82 22.5 -10.14 22.5 -11.5 22.5 C-11.60806144 19.58234109 -11.68732877 16.66868875 -11.75 13.75 C-11.78351563 12.925 -11.81703125 12.1 -11.8515625 11.25 C-11.91184356 7.51257417 -11.92260577 5.19580546 -9.953125 1.953125 C-6.53921387 -0.06912809 -3.94752373 -0.03108286 0 0 Z " fill="#0C0C0C" transform="translate(177.5,197.5)"/>
<path d="M0 0 C0.88816406 0.01804688 1.77632812 0.03609375 2.69140625 0.0546875 C4.87870848 0.10172626 7.06379816 0.16742991 9.25 0.25 C9.25 1.57 9.25 2.89 9.25 4.25 C2.98 4.25 -3.29 4.25 -9.75 4.25 C-9.75 5.9 -9.75 7.55 -9.75 9.25 C-5.13 9.25 -0.51 9.25 4.25 9.25 C4.25 10.57 4.25 11.89 4.25 13.25 C-0.37 13.25 -4.99 13.25 -9.75 13.25 C-9.75 14.9 -9.75 16.55 -9.75 18.25 C-3.48 18.25 2.79 18.25 9.25 18.25 C9.25 19.57 9.25 20.89 9.25 22.25 C6.16684615 22.33733513 3.08401173 22.39050127 0 22.4375 C-0.87269531 22.46263672 -1.74539062 22.48777344 -2.64453125 22.51367188 C-6.1975155 22.5543549 -9.01412857 22.5488084 -12.328125 21.203125 C-14.48220858 18.24421898 -14.33090548 15.32851735 -14.25 11.8125 C-14.2603125 10.49378906 -14.270625 9.17507812 -14.28125 7.81640625 C-13.75 4.25 -13.75 4.25 -12.328125 1.79296875 C-8.33611328 -0.59618978 -4.5534461 -0.17487385 0 0 Z " fill="#0B0B0B" transform="translate(50.75,197.75)"/>
<path d="M0 0 C0.71994141 -0.00708984 1.43988281 -0.01417969 2.18164062 -0.02148438 C7.39528869 0.04144731 7.39528869 0.04144731 9.64746094 1.68652344 C11.28697379 3.91184255 11.28570625 5.1432565 11.23046875 7.88671875 C11.22080078 8.73427734 11.21113281 9.58183594 11.20117188 10.45507812 C11.17603516 11.33615234 11.15089844 12.21722656 11.125 13.125 C11.10469727 14.46401367 11.10469727 14.46401367 11.08398438 15.83007812 C11.04864079 18.03316166 10.99930493 20.23502582 10.9375 22.4375 C9.6175 22.4375 8.2975 22.4375 6.9375 22.4375 C6.9375 16.8275 6.9375 11.2175 6.9375 5.4375 C2.3175 5.4375 -2.3025 5.4375 -7.0625 5.4375 C-7.0625 11.0475 -7.0625 16.6575 -7.0625 22.4375 C-8.7125 22.4375 -10.3625 22.4375 -12.0625 22.4375 C-12.17056144 19.51984109 -12.24982877 16.60618875 -12.3125 13.6875 C-12.34601563 12.8625 -12.37953125 12.0375 -12.4140625 11.1875 C-12.47400084 7.47132261 -12.47251131 5.12932787 -10.55078125 1.88671875 C-7.07658499 -0.13671424 -3.90409955 -0.10893527 0 0 Z " fill="#242424" transform="translate(206.0625,197.5625)"/>
<path d="M0 0 C6.93 0 13.86 0 21 0 C21 3.63 21 7.26 21 11 C13.74 11 6.48 11 -1 11 C-1 4 -1 4 0 0 Z " fill="#47AFD3" transform="translate(152,29)"/>
<path d="M0 0 C7.26 0 14.52 0 22 0 C21.67 3.63 21.34 7.26 21 11 C14.4 11 7.8 11 1 11 C0.67 7.37 0.34 3.74 0 0 Z " fill="#4BB8DF" transform="translate(151,45)"/>
<path d="M0 0 C5.28 0 10.56 0 16 0 C16 4.62 16 9.24 16 14 C10.72 14 5.44 14 0 14 C0 9.38 0 4.76 0 0 Z " fill="#E2E2E2" transform="translate(113,202)"/>
<path d="M0 0 C1.32 0 2.64 0 4 0 C4 2.97 4 5.94 4 9 C7.96 9 11.92 9 16 9 C16 6.03 16 3.06 16 0 C17.32 0 18.64 0 20 0 C20 7.26 20 14.52 20 22 C18.68 22 17.36 22 16 22 C16 19.03 16 16.06 16 13 C12.04 13 8.08 13 4 13 C4 15.97 4 18.94 4 22 C2.68 22 1.36 22 0 22 C0 14.74 0 7.48 0 0 Z " fill="#111111" transform="translate(65,198)"/>
<path d="M0 0 C1.32 0 2.64 0 4 0 C4 5.94 4 11.88 4 18 C8.95 18 13.9 18 19 18 C19 12.06 19 6.12 19 0 C20.32 0 21.64 0 23 0 C23.10806144 2.91765891 23.18732877 5.83131125 23.25 8.75 C23.30027344 9.9875 23.30027344 9.9875 23.3515625 11.25 C23.41150084 14.96617739 23.41001131 17.30817213 21.48828125 20.55078125 C18.01408499 22.57421424 14.84159955 22.54643527 10.9375 22.4375 C10.21755859 22.44458984 9.49761719 22.45167969 8.75585938 22.45898438 C3.54221131 22.39605269 3.54221131 22.39605269 1.29003906 20.75097656 C-0.34947379 18.52565745 -0.34820625 17.2942435 -0.29296875 14.55078125 C-0.28330078 13.70322266 -0.27363281 12.85566406 -0.26367188 11.98242188 C-0.23853516 11.10134766 -0.21339844 10.22027344 -0.1875 9.3125 C-0.17396484 8.41982422 -0.16042969 7.52714844 -0.14648438 6.60742188 C-0.11114079 4.40433834 -0.06180493 2.20247418 0 0 Z " fill="#141414" transform="translate(138,198)"/>
<path d="M0 0 C4.62 0 9.24 0 14 0 C14 4.62 14 9.24 14 14 C9.38 14 4.76 14 0 14 C0 9.38 0 4.76 0 0 Z " fill="#ECECEC" transform="translate(14,202)"/>
<path d="M0 0 C0.66 1.65 1.32 3.3 2 5 C-1.06299307 8.2075998 -4.15345492 11.38730537 -7.25 14.5625 C-8.12269531 15.47708984 -8.99539062 16.39167969 -9.89453125 17.33398438 C-10.73886719 18.19443359 -11.58320313 19.05488281 -12.453125 19.94140625 C-13.22817383 20.74263916 -14.00322266 21.54387207 -14.80175781 22.36938477 C-17 24 -17 24 -19.19140625 23.84179688 C-22.38221167 22.35665958 -23.88645088 19.7593558 -26 17 C-25.01 16.01 -24.02 15.02 -23 14 C-20.525 14.99 -20.525 14.99 -18 16 C-17.52578613 15.5153125 -17.05157227 15.030625 -16.56298828 14.53125 C-14.42218263 12.34900263 -12.27373132 10.17444263 -10.125 8 C-9.37863281 7.236875 -8.63226563 6.47375 -7.86328125 5.6875 C-7.14785156 4.965625 -6.43242187 4.24375 -5.6953125 3.5 C-5.03547363 2.8296875 -4.37563477 2.159375 -3.69580078 1.46875 C-2 0 -2 0 0 0 Z " fill="#180C0A" transform="translate(140,92)"/>
<path d="M0 0 C3.96 0 7.92 0 12 0 C14 5 14 5 14 11 C9.38 11 4.76 11 0 11 C0 7.37 0 3.74 0 0 Z " fill="#46ADD1" transform="translate(178,29)"/>
<path d="M0 0 C4.62 0 9.24 0 14 0 C14 3.63 14 7.26 14 11 C10.04 11 6.08 11 2 11 C0 6 0 6 0 0 Z " fill="#48B2D7" transform="translate(133,45)"/>
<path d="M0 0 C4.62 0 9.24 0 14 0 C14 6 14 6 13.1875 8.875 C10.38918044 11.59336757 9.13655997 11.30758476 5.3125 11.3125 C2.6828125 11.1578125 2.6828125 11.1578125 0 11 C0 7.37 0 3.74 0 0 Z " fill="#49B4DA" transform="translate(178,45)"/>
<path d="M0 0 C7.26 0 14.52 0 22 0 C22 1.98 22 3.96 22 6 C14.74 6 7.48 6 0 6 C0 4.02 0 2.04 0 0 Z " fill="#0A1518" transform="translate(116,72)"/>
<path d="M0 0 C8.58 0 17.16 0 26 0 C26 1.65 26 3.3 26 5 C17.42 5 8.84 5 0 5 C0 3.35 0 1.7 0 0 Z " fill="#010202" transform="translate(73,116)"/>
<path d="M0 0 C2.6015625 -0.29296875 2.6015625 -0.29296875 5.625 -0.1875 C7.12933594 -0.14689453 7.12933594 -0.14689453 8.6640625 -0.10546875 C9.43492187 -0.07066406 10.20578125 -0.03585938 11 0 C11 3.3 11 6.6 11 10 C6.71 10 2.42 10 -2 10 C-2.25 3.375 -2.25 3.375 0 0 Z " fill="#4BB7DE" transform="translate(135,29)"/>
<path d="M0 0 C5.28 0 10.56 0 16 0 C14.86382265 5.68088674 13.71674706 6.90204811 10 11 C7.19294916 10.91979855 5.51793117 10.54452763 3.5546875 8.48046875 C0 3.65625 0 3.65625 0 0 Z " fill="#48B1D6" transform="translate(154,61)"/>
<path d="M0 0 C3.12721291 1.85678267 4.91916476 4.23965008 7 7.1875 C7 8.5075 7 9.8275 7 11.1875 C2.05 11.1875 -2.9 11.1875 -8 11.1875 C-7.15075754 6.09204521 -6.14090574 0.57570991 0 0 Z " fill="#48B0D5" transform="translate(163,11.8125)"/>
<path d="M0 0 C3.63 0 7.26 0 11 0 C11 3.63 11 7.26 11 11 C7.37 11 3.74 11 0 11 C0 7.37 0 3.74 0 0 Z " fill="#4AB6DC" transform="translate(83,83)"/>
<path d="M0 0 C5.94 0 11.88 0 18 0 C17 5 17 5 16 6 C13.87991884 6.17813354 11.75208388 6.26789228 9.625 6.3125 C7.88089844 6.36857422 7.88089844 6.36857422 6.1015625 6.42578125 C3 6 3 6 1.0859375 4.10546875 C0 2 0 2 0 0 Z " fill="#DD6046" transform="translate(36,61)"/>
<path d="M0 0 C5.94 0 11.88 0 18 0 C16 5 16 5 15 6 C12.81360547 6.07258946 10.62499611 6.08373783 8.4375 6.0625 C6.64119141 6.04896484 6.64119141 6.04896484 4.80859375 6.03515625 C3.88175781 6.02355469 2.95492187 6.01195313 2 6 C2 5.01 2 4.02 2 3 C1.34 3 0.68 3 0 3 C0 2.01 0 1.02 0 0 Z " fill="#E06148" transform="translate(91,61)"/>
<path d="M0 0 C5.61 0 11.22 0 17 0 C16 4 16 4 15 6 C12.87561661 6.08078641 10.7503677 6.13909141 8.625 6.1875 C7.44164063 6.22230469 6.25828125 6.25710937 5.0390625 6.29296875 C3.53472656 6.14794922 3.53472656 6.14794922 2 6 C0 3 0 3 0 0 Z " fill="#E3C264" transform="translate(64,61)"/>
<path d="M0 0 C5.28 0 10.56 0 16 0 C16 1.65 16 3.3 16 5 C11.05 5 6.1 5 1 5 C0.67 3.35 0.34 1.7 0 0 Z " fill="#C3C8CF" transform="translate(111,45)"/>
<path d="M0 0 C4.95 0 9.9 0 15 0 C15 1.65 15 3.3 15 5 C10.05 5 5.1 5 0 5 C0 3.35 0 1.7 0 0 Z " fill="#E0E0E0" transform="translate(170,202)"/>
<path d="M0 0 C2.97 0 5.94 0 9 0 C9.99 2.97 10.98 5.94 12 9 C6.80474854 7.6393389 3.82444243 5.64232612 0 2 C0 1.34 0 0.68 0 0 Z " fill="#41A0C1" transform="translate(140,61)"/>
<path d="M0 0 C2.95064148 -0.2208564 5.68368231 -0.28060989 8.625 -0.1875 C9.42679688 -0.17396484 10.22859375 -0.16042969 11.0546875 -0.14648438 C13.03674378 -0.11109051 15.01845551 -0.05728234 17 0 C17 0.99 17 1.98 17 3 C10.73 3 4.46 3 -2 3 C-1.34 2.01 -0.68 1.02 0 0 Z " fill="#000000" transform="translate(42,199)"/>
<path d="M0 0 C1.23556641 0.01740234 1.23556641 0.01740234 2.49609375 0.03515625 C3.32238281 0.04417969 4.14867187 0.05320313 5 0.0625 C5.63808594 0.07410156 6.27617187 0.08570313 6.93359375 0.09765625 C2.30859375 5.84765625 2.30859375 5.84765625 -1.06640625 8.09765625 C-2.05640625 8.09765625 -3.04640625 8.09765625 -4.06640625 8.09765625 C-3.05416559 0.14433675 -3.05416559 0.14433675 0 0 Z " fill="#43A6C9" transform="translate(178.06640625,60.90234375)"/>
<path d="M0 0 C5.02709507 1.57096721 9.02866469 4.61993049 13 8 C13 8.33 13 8.66 13 9 C10.03 9 7.06 9 4 9 C2.68 6.03 1.36 3.06 0 0 Z " fill="#44A7C9" transform="translate(172,14)"/>
<path d="M0 0 C-0.33 1.65 -0.66 3.3 -1 5 C-1.66 5 -2.32 5 -3 5 C-3.33 6.32 -3.66 7.64 -4 9 C-6.64 9 -9.28 9 -12 9 C-9.14880426 5.05219051 -5.28603137 0 0 0 Z " fill="#45A9CC" transform="translate(152,14)"/>
<path d="M0 0 C1.98 0 3.96 0 6 0 C6 1.98 6 3.96 6 6 C4.02 6 2.04 6 0 6 C0 4.02 0 2.04 0 0 Z " fill="#C9AB59" transform="translate(127,148)"/>
<path d="M0 0 C1.98 0 3.96 0 6 0 C6 1.98 6 3.96 6 6 C4.02 6 2.04 6 0 6 C0 4.02 0 2.04 0 0 Z " fill="#CCAE5A" transform="translate(138,148)"/>
<path d="M0 0 C1.65 0 3.3 0 5 0 C5 1.98 5 3.96 5 6 C3.35 6 1.7 6 0 6 C0 4.02 0 2.04 0 0 Z " fill="#E1C063" transform="translate(149,148)"/>
<path d="M0 0 C0.66 0.33 1.32 0.66 2 1 C0.38113585 2.67262717 -1.2452729 4.33795537 -2.875 6 C-3.77992188 6.928125 -4.68484375 7.85625 -5.6171875 8.8125 C-8 11 -8 11 -10 11 C-8.55218207 7.55571735 -6.72305391 5.63869038 -3.875 3.25 C-3.15054688 2.63640625 -2.42609375 2.0228125 -1.6796875 1.390625 C-0.84824219 0.70226562 -0.84824219 0.70226562 0 0 Z " fill="#2D2D2D" transform="translate(143,12)"/>
<path d="M0 0 C0.99 0.33 1.98 0.66 3 1 C3.6875 3.0625 3.6875 3.0625 4 5 C2.02 5.33 0.04 5.66 -2 6 C-1.34 4.02 -0.68 2.04 0 0 Z " fill="#9C9FA1" transform="translate(85,65)"/>
</svg>
